<svg width="100" height="100" viewBox="0 0 100 100" fill="none" xmlns="http://www.w3.org/2000/svg">
<circle cx="50" cy="50" r="50" fill="white"/>
<path d="M39.3725 68.3647C39.3725 67.5978 39.3725 66.831 39.3725 66.0642C39.378 66.0328 39.3769 66.0007 39.3693 65.9698C39.3617 65.9389 39.3478 65.9099 39.3284 65.8845C39.309 65.8591 39.2846 65.838 39.2566 65.8223C39.2286 65.8067 39.1977 65.7969 39.1657 65.7935C37.2458 65.2536 35.4738 64.2917 33.9817 62.9795C32.8945 62.0005 31.9894 60.8402 31.3073 59.5514C30.3461 57.6897 29.7063 55.6818 29.4146 53.6111C29.0532 51.0135 28.9277 48.3891 29.0396 45.7693C29.0641 44.5479 29.1272 43.3404 29.2674 42.1191C29.491 39.7981 30.0824 37.5265 31.0199 35.3876C32.1776 32.7579 34.2777 30.6455 36.9155 29.4577C38.7123 28.6438 40.6026 28.0495 42.5446 27.6881C44.4491 27.331 46.3773 27.1119 48.3139 27.0324C50.0597 26.9712 51.8074 26.9967 53.5505 27.1087C56.0454 27.2129 58.5177 27.622 60.9112 28.3266C62.6858 28.833 64.374 29.599 65.9199 30.5993C67.4262 31.6229 68.6445 33.0093 69.46 34.6278C70.4188 36.5181 71.0706 38.5462 71.3913 40.6375C71.5997 41.879 71.7366 43.1314 71.8014 44.3883C71.8926 45.9463 71.882 47.5111 71.8225 49.0621C71.7629 50.6131 71.6297 52.119 71.4369 53.6388C71.1932 55.9199 70.4849 58.1283 69.3549 60.1308C67.884 62.664 65.5277 64.577 62.7303 65.509C60.8175 66.1721 58.8425 66.6441 56.8348 66.9178C55.3662 67.119 53.894 67.2647 52.4149 67.3237C51.2827 67.3758 50.1506 67.3619 49.0185 67.3446C48.377 67.3446 47.7391 67.2821 47.1012 67.2266C47.0386 67.2149 46.9738 67.2218 46.9152 67.2465C46.8566 67.2712 46.8066 67.3126 46.7717 67.3654C45.4819 68.899 44.1429 70.391 42.7935 71.8761C42.5477 72.1471 42.2631 72.3809 41.9487 72.5701C41.7424 72.7041 41.5072 72.7882 41.2619 72.8156C41.0167 72.843 40.7685 72.8129 40.5372 72.7278C40.3059 72.6427 40.098 72.5049 39.9304 72.3256C39.7628 72.1463 39.6401 71.9306 39.5723 71.6957C39.4387 71.2783 39.3725 70.8427 39.376 70.4049C39.3725 69.7179 39.3725 69.0413 39.3725 68.3647ZM40.9323 71.2758L41.097 71.1232L44.0237 67.9067C45.15 66.6691 46.2752 65.4304 47.3991 64.1905C47.4544 64.1149 47.5289 64.0551 47.6151 64.0173C47.7013 63.9795 47.7961 63.965 47.8898 63.9754C48.2719 64.0135 48.6539 64.0274 49.0395 64.0309C50.3714 64.0309 51.7034 64.0309 53.0353 63.9372C54.2445 63.8435 55.4503 63.6978 56.649 63.5104C57.9396 63.288 59.2173 62.9973 60.4765 62.6395C63.2806 61.8935 65.4502 60.2974 66.8137 57.7124C67.6187 56.1231 68.1235 54.4015 68.3034 52.6326C68.5164 50.9653 68.6439 49.2884 68.6854 47.6083C68.7476 45.4978 68.602 43.3863 68.2508 41.3037C68.0073 39.7948 67.5691 38.3231 66.9469 36.9248C66.1548 35.1899 65.0331 33.7534 63.3051 32.8304C60.6553 31.4147 57.7882 30.7832 54.8334 30.4605C53.9957 30.3703 53.158 30.3217 52.3167 30.2905C50.5943 30.2026 48.8682 30.2119 47.1468 30.3183C45.9088 30.4092 44.6775 30.5737 43.4594 30.811C41.6682 31.1342 39.9353 31.7189 38.3175 32.5459C37.3796 33.015 36.5287 33.638 35.8008 34.3883C34.6213 35.6935 33.756 37.2464 33.2702 38.9303C32.6938 40.8915 32.3792 42.9189 32.3343 44.9608C32.2216 47.0028 32.2473 49.05 32.4114 51.0885C32.5136 52.3017 32.7187 53.5042 33.0248 54.6832C33.4802 56.5206 34.3637 58.227 35.6046 59.6659C36.9442 61.1338 38.6757 62.1971 40.5993 62.7332C40.8411 62.806 40.9498 62.8893 40.9498 63.16C40.9288 64.1593 40.9498 65.1586 40.9498 66.1579L40.9323 71.2758Z" fill="black"/>
<path d="M38.4794 40.2839C38.4549 39.524 38.872 38.9723 39.3767 38.4761C40.0424 37.8449 40.7758 37.2875 41.5639 36.8141C41.9232 36.5947 42.3505 36.5111 42.7671 36.5787C43.1838 36.6462 43.5618 36.8604 43.8316 37.1819C44.7851 38.1741 45.6386 39.256 46.3798 40.4123C46.7469 40.9324 47.0241 41.5093 47.2 42.1194C47.2703 42.3575 47.2749 42.6099 47.2133 42.8503C47.1516 43.0908 47.026 43.3104 46.8495 43.4865C46.4451 43.8795 46.0142 44.2446 45.5596 44.5795C45.3306 44.7602 45.1603 45.0036 45.0699 45.2794C44.9796 45.5551 44.9731 45.8511 45.0514 46.1305C45.3321 47.4424 45.9682 48.6538 46.8916 49.635C48.0135 50.9909 49.4591 52.0487 51.0977 52.7127C51.5003 52.9177 51.9616 52.9801 52.405 52.8897C52.6479 52.8241 52.8637 52.6845 53.0219 52.4907C53.2673 52.1819 53.5337 51.8835 53.7545 51.5538C54.0409 51.1426 54.4782 50.8585 54.9732 50.7619C55.4682 50.6653 55.9817 50.764 56.4043 51.0368C57.5925 51.7192 58.7142 52.5091 59.7552 53.3963C60.0005 53.6045 60.2564 53.8057 60.5018 54.0174C60.7921 54.2366 61.0017 54.544 61.0986 54.8924C61.1955 55.2409 61.1742 55.6112 61.038 55.9466C60.8215 56.5105 60.5058 57.0321 60.1057 57.4872C59.6084 58.1713 58.975 58.7476 58.2445 59.1805C57.8953 59.3835 57.5029 59.5027 57.0987 59.5286C56.6946 59.5545 56.2899 59.4864 55.9171 59.3297C53.0813 58.1994 50.4315 56.6569 48.0553 54.753C45.731 52.8589 43.6999 50.6377 42.0265 48.1604C40.6185 46.1095 39.4983 43.8788 38.6967 41.5296C38.6114 41.2454 38.5412 40.957 38.4864 40.6656C38.4708 40.5389 38.4685 40.411 38.4794 40.2839Z" fill="black"/>
<path d="M50.5807 36.5919C52.9533 36.6354 55.2353 37.5017 57.0288 39.0401C58.8224 40.5784 60.0136 42.691 60.3949 45.0097C60.5484 45.8527 60.6305 46.7069 60.6402 47.5635C60.6402 47.7647 60.5877 47.9104 60.3703 47.9313C60.153 47.9521 60.0969 47.7682 60.0969 47.5843C60.1295 45.8517 59.7702 44.1339 59.0454 42.5565C58.435 41.2604 57.5308 40.1212 56.4031 39.2275C55.2754 38.3339 53.9546 37.7098 52.5435 37.4039C51.7975 37.2329 51.0345 37.1444 50.2687 37.1402C50.1942 37.1414 50.1198 37.1321 50.0479 37.1124C49.9867 37.0953 49.9346 37.0554 49.9026 37.001C49.8705 36.9466 49.8611 36.8821 49.8762 36.8209C49.8766 36.7919 49.8829 36.7633 49.8946 36.7367C49.9064 36.7101 49.9233 36.6861 49.9445 36.6661C49.9657 36.6461 49.9908 36.6304 50.0181 36.6201C50.0455 36.6097 50.0747 36.6049 50.104 36.6058C50.2617 36.585 50.423 36.5919 50.5807 36.5919Z" fill="black"/>
<path d="M57.3468 46.0019C57.3351 45.038 57.0953 44.0902 56.6467 43.2345C56.1981 42.3788 55.5531 41.6392 54.7636 41.0748C53.8422 40.4341 52.7709 40.0364 51.6511 39.9194C51.4618 39.8951 51.2726 39.8847 51.0798 39.8639C50.887 39.843 50.7713 39.7632 50.7889 39.5689C50.8064 39.3746 50.9291 39.3052 51.1394 39.3191C54.2449 39.5065 56.8877 41.2448 57.7009 44.4822C57.8496 45.1064 57.9237 45.7457 57.9217 46.3871C57.9217 46.4461 57.9217 46.5051 57.9217 46.5606C57.9217 46.7341 57.8095 46.8486 57.6378 46.8451C57.5997 46.8438 57.5622 46.8349 57.5278 46.8188C57.4933 46.8028 57.4625 46.7799 57.4372 46.7516C57.412 46.7234 57.3928 46.6903 57.3809 46.6545C57.3689 46.6187 57.3645 46.5808 57.3679 46.5432C57.3398 46.3801 57.3468 46.2136 57.3468 46.0019Z" fill="black"/>
<path d="M51.9059 42.1364C53.6093 42.2509 54.7976 43.0767 55.1235 44.8706C55.1631 45.1004 55.1912 45.332 55.2077 45.5646C55.2077 45.752 55.1656 45.9116 54.9588 45.9116C54.752 45.9116 54.6819 45.7728 54.6749 45.5646C54.6729 44.877 54.4589 44.2063 54.0615 43.6423C53.6438 43.1315 53.0442 42.7987 52.3861 42.7124C52.2389 42.6852 52.0903 42.6666 51.9409 42.6569C51.6956 42.6569 51.5589 42.5355 51.5904 42.3481C51.622 42.1607 51.7692 42.126 51.9059 42.1364Z" fill="black"/>
</svg>
