<svg width="100" height="100" viewBox="0 0 100 100" fill="none" xmlns="http://www.w3.org/2000/svg">
<circle cx="50" cy="50" r="50" fill="white"/>
<path d="M41.678 50C41.678 45.3978 45.41 41.666 50.015 41.666C54.62 41.666 58.354 45.3978 58.354 50C58.354 54.6022 54.62 58.334 50.015 58.334C45.41 58.334 41.678 54.6022 41.678 50ZM37.1701 50C37.1701 57.09 42.9207 62.8372 50.015 62.8372C57.1093 62.8372 62.8599 57.09 62.8599 50C62.8599 42.91 57.1093 37.1628 50.015 37.1628C42.9207 37.1628 37.1701 42.91 37.1701 50ZM60.3666 36.6538C60.3664 37.2471 60.5422 37.8272 60.8718 38.3207C61.2015 38.8142 61.6701 39.1989 62.2186 39.4262C62.767 39.6535 63.3705 39.7131 63.9529 39.5976C64.5352 39.4821 65.0702 39.1966 65.4902 38.7772C65.9101 38.3578 66.1962 37.8233 66.3123 37.2414C66.4284 36.6596 66.3691 36.0563 66.1422 35.5081C65.9152 34.9598 65.5306 34.4911 65.0371 34.1613C64.5436 33.8314 63.9633 33.6552 63.3696 33.655H63.3684C62.5726 33.6554 61.8095 33.9714 61.2466 34.5337C60.6838 35.0959 60.3673 35.8585 60.3666 36.6538ZM39.9089 70.3494C37.4701 70.2384 36.1445 69.8324 35.2636 69.4894C34.0957 69.035 33.2624 68.4938 32.3862 67.6194C31.5101 66.745 30.9678 65.913 30.5151 64.7458C30.1717 63.8658 29.7655 62.5406 29.6546 60.1032C29.5333 57.468 29.5091 56.6764 29.5091 50.0002C29.5091 43.324 29.5353 42.5346 29.6546 39.8972C29.7657 37.4598 30.1749 36.1372 30.5151 35.2546C30.9698 34.0874 31.5113 33.2546 32.3862 32.379C33.2612 31.5034 34.0937 30.9614 35.2636 30.509C36.1441 30.1658 37.4701 29.7598 39.9089 29.649C42.5457 29.5278 43.3378 29.5036 50.015 29.5036C56.6922 29.5036 57.4851 29.5298 60.1241 29.649C62.5629 29.76 63.8863 30.169 64.7694 30.509C65.9374 30.9614 66.7706 31.5046 67.6468 32.379C68.5229 33.2534 69.0632 34.0874 69.5179 35.2546C69.8613 36.1346 70.2675 37.4598 70.3784 39.8972C70.4997 42.5346 70.5239 43.324 70.5239 50.0002C70.5239 56.6764 70.4997 57.4658 70.3784 60.1032C70.2673 62.5406 69.8591 63.8654 69.5179 64.7458C69.0632 65.913 68.5217 66.7458 67.6468 67.6194C66.7719 68.493 65.9374 69.035 64.7694 69.4894C63.8889 69.8326 62.5629 70.2386 60.1241 70.3494C57.4873 70.4706 56.6952 70.4948 50.015 70.4948C43.3348 70.4948 42.5449 70.4706 39.9089 70.3494ZM39.7018 25.1514C37.0388 25.2726 35.2191 25.6946 33.63 26.3126C31.9842 26.9508 30.591 27.807 29.1987 29.1962C27.8065 30.5854 26.952 31.98 26.3134 33.6248C25.695 35.214 25.2728 37.0316 25.1515 39.693C25.0282 42.3586 25 43.2108 25 50C25 56.7892 25.0282 57.6414 25.1515 60.307C25.2728 62.9686 25.695 64.786 26.3134 66.3752C26.952 68.019 27.8067 69.4152 29.1987 70.8038C30.5908 72.1924 31.9842 73.0474 33.63 73.6874C35.2221 74.3054 37.0388 74.7274 39.7018 74.8486C42.3704 74.9698 43.2217 75 50.015 75C56.8083 75 57.661 74.9718 60.3282 74.8486C62.9914 74.7274 64.8099 74.3054 66.4 73.6874C68.0448 73.0474 69.439 72.193 70.8313 70.8038C72.2235 69.4146 73.0762 68.019 73.7166 66.3752C74.335 64.786 74.7592 62.9684 74.8785 60.307C74.9998 57.6394 75.028 56.7892 75.028 50C75.028 43.2108 74.9998 42.3586 74.8785 39.693C74.7572 37.0314 74.335 35.213 73.7166 33.6248C73.0762 31.981 72.2213 30.5876 70.8313 29.1962C69.4412 27.8048 68.0448 26.9508 66.402 26.3126C64.8099 25.6946 62.9912 25.2706 60.3302 25.1514C57.663 25.0302 56.8103 25 50.017 25C43.2237 25 42.3704 25.0282 39.7018 25.1514Z" fill="url(#paint0_radial_135_2855)"/>
<path d="M41.678 50C41.678 45.3978 45.41 41.666 50.015 41.666C54.62 41.666 58.354 45.3978 58.354 50C58.354 54.6022 54.62 58.334 50.015 58.334C45.41 58.334 41.678 54.6022 41.678 50ZM37.1701 50C37.1701 57.09 42.9207 62.8372 50.015 62.8372C57.1093 62.8372 62.8599 57.09 62.8599 50C62.8599 42.91 57.1093 37.1628 50.015 37.1628C42.9207 37.1628 37.1701 42.91 37.1701 50ZM60.3666 36.6538C60.3664 37.2471 60.5422 37.8272 60.8718 38.3207C61.2015 38.8142 61.6701 39.1989 62.2186 39.4262C62.767 39.6535 63.3705 39.7131 63.9529 39.5976C64.5352 39.4821 65.0702 39.1966 65.4902 38.7772C65.9101 38.3578 66.1962 37.8233 66.3123 37.2414C66.4284 36.6596 66.3691 36.0563 66.1422 35.5081C65.9152 34.9598 65.5306 34.4911 65.0371 34.1613C64.5436 33.8314 63.9633 33.6552 63.3696 33.655H63.3684C62.5726 33.6554 61.8095 33.9714 61.2466 34.5337C60.6838 35.0959 60.3673 35.8585 60.3666 36.6538ZM39.9089 70.3494C37.4701 70.2384 36.1445 69.8324 35.2636 69.4894C34.0957 69.035 33.2624 68.4938 32.3862 67.6194C31.5101 66.745 30.9678 65.913 30.5151 64.7458C30.1717 63.8658 29.7655 62.5406 29.6546 60.1032C29.5333 57.468 29.5091 56.6764 29.5091 50.0002C29.5091 43.324 29.5353 42.5346 29.6546 39.8972C29.7657 37.4598 30.1749 36.1372 30.5151 35.2546C30.9698 34.0874 31.5113 33.2546 32.3862 32.379C33.2612 31.5034 34.0937 30.9614 35.2636 30.509C36.1441 30.1658 37.4701 29.7598 39.9089 29.649C42.5457 29.5278 43.3378 29.5036 50.015 29.5036C56.6922 29.5036 57.4851 29.5298 60.1241 29.649C62.5629 29.76 63.8863 30.169 64.7694 30.509C65.9374 30.9614 66.7706 31.5046 67.6468 32.379C68.5229 33.2534 69.0632 34.0874 69.5179 35.2546C69.8613 36.1346 70.2675 37.4598 70.3784 39.8972C70.4997 42.5346 70.5239 43.324 70.5239 50.0002C70.5239 56.6764 70.4997 57.4658 70.3784 60.1032C70.2673 62.5406 69.8591 63.8654 69.5179 64.7458C69.0632 65.913 68.5217 66.7458 67.6468 67.6194C66.7719 68.493 65.9374 69.035 64.7694 69.4894C63.8889 69.8326 62.5629 70.2386 60.1241 70.3494C57.4873 70.4706 56.6952 70.4948 50.015 70.4948C43.3348 70.4948 42.5449 70.4706 39.9089 70.3494ZM39.7018 25.1514C37.0388 25.2726 35.2191 25.6946 33.63 26.3126C31.9842 26.9508 30.591 27.807 29.1987 29.1962C27.8065 30.5854 26.952 31.98 26.3134 33.6248C25.695 35.214 25.2728 37.0316 25.1515 39.693C25.0282 42.3586 25 43.2108 25 50C25 56.7892 25.0282 57.6414 25.1515 60.307C25.2728 62.9686 25.695 64.786 26.3134 66.3752C26.952 68.019 27.8067 69.4152 29.1987 70.8038C30.5908 72.1924 31.9842 73.0474 33.63 73.6874C35.2221 74.3054 37.0388 74.7274 39.7018 74.8486C42.3704 74.9698 43.2217 75 50.015 75C56.8083 75 57.661 74.9718 60.3282 74.8486C62.9914 74.7274 64.8099 74.3054 66.4 73.6874C68.0448 73.0474 69.439 72.193 70.8313 70.8038C72.2235 69.4146 73.0762 68.019 73.7166 66.3752C74.335 64.786 74.7592 62.9684 74.8785 60.307C74.9998 57.6394 75.028 56.7892 75.028 50C75.028 43.2108 74.9998 42.3586 74.8785 39.693C74.7572 37.0314 74.335 35.213 73.7166 33.6248C73.0762 31.981 72.2213 30.5876 70.8313 29.1962C69.4412 27.8048 68.0448 26.9508 66.402 26.3126C64.8099 25.6946 62.9912 25.2706 60.3302 25.1514C57.663 25.0302 56.8103 25 50.017 25C43.2237 25 42.3704 25.0282 39.7018 25.1514Z" fill="url(#paint1_radial_135_2855)"/>
<defs>
<radialGradient id="paint0_radial_135_2855" cx="0" cy="0" r="1" gradientUnits="userSpaceOnUse" gradientTransform="translate(31.6468 75.2362) scale(65.31 65.2708)">
<stop offset="0.09" stop-color="#FA8F21"/>
<stop offset="0.78" stop-color="#D82D7E"/>
</radialGradient>
<radialGradient id="paint1_radial_135_2855" cx="0" cy="0" r="1" gradientUnits="userSpaceOnUse" gradientTransform="translate(55.341 77.4762) scale(51.4733 51.4424)">
<stop offset="0.64" stop-color="#8C3AAA" stop-opacity="0"/>
<stop offset="1" stop-color="#8C3AAA"/>
</radialGradient>
</defs>
</svg>
