<svg width="100" height="100" viewBox="0 0 100 100" fill="none" xmlns="http://www.w3.org/2000/svg">
<circle cx="50" cy="50" r="50" fill="white"/>
<path d="M27 72.7809L30.2847 60.5785C27.6357 55.8251 26.7941 50.2782 27.9143 44.9558C29.0345 39.6334 32.0414 34.8924 36.3832 31.6029C40.725 28.3133 46.1105 26.6958 51.5514 27.0473C56.9924 27.3987 62.1238 29.6954 66.004 33.516C69.8842 37.3366 72.253 42.4248 72.6757 47.8469C73.0984 53.269 71.5466 58.6613 68.3052 63.0342C65.0637 67.4072 60.3499 70.4676 55.0289 71.6537C49.7078 72.8399 44.1364 72.0722 39.3369 69.4917L27 72.7809ZM39.9318 64.9255L40.6948 65.3769C44.1711 67.4322 48.2314 68.2827 52.2429 67.7959C56.2545 67.3091 59.9919 65.5124 62.8728 62.6857C65.7537 59.8589 67.6162 56.1611 68.1701 52.1683C68.724 48.1755 67.9382 44.1121 65.9351 40.6113C63.932 37.1105 60.8242 34.3689 57.0959 32.8139C53.3676 31.2588 49.2283 30.9776 45.3231 32.014C41.4179 33.0505 37.966 35.3464 35.5056 38.5439C33.0451 41.7415 31.7141 45.661 31.7201 49.6919C31.7168 53.0341 32.6435 56.3116 34.397 59.1597L34.8755 59.9465L33.0391 66.7571L39.9318 64.9255Z" fill="#00D95F"/>
<path fill-rule="evenodd" clip-rule="evenodd" d="M58.4498 52.8251C58.0025 52.4653 57.4788 52.212 56.9185 52.0846C56.3583 51.9572 55.7763 51.959 55.2168 52.0899C54.3762 52.4382 53.8331 53.7538 53.29 54.4117C53.1754 54.5694 53.0071 54.68 52.8167 54.7227C52.6262 54.7655 52.4266 54.7374 52.2554 54.6439C49.1781 53.4416 46.5986 51.237 44.936 48.3879C44.7942 48.2101 44.7271 47.9844 44.7488 47.7582C44.7705 47.5321 44.8794 47.3231 45.0524 47.1754C45.6582 46.5772 46.103 45.8364 46.3456 45.0213C46.3995 44.1223 46.193 43.2267 45.7507 42.4415C45.4088 41.3407 44.7582 40.3604 43.8756 39.6167C43.4204 39.4125 42.9157 39.344 42.4224 39.4195C41.929 39.495 41.4681 39.7113 41.0953 40.0423C40.448 40.5994 39.9342 41.2941 39.5918 42.0754C39.2494 42.8568 39.0871 43.7047 39.1167 44.5569C39.1187 45.0355 39.1795 45.512 39.2978 45.9758C39.5981 47.0902 40.0598 48.1548 40.6685 49.136C41.1077 49.8877 41.5869 50.6154 42.104 51.316C43.7845 53.6171 45.897 55.5709 48.3242 57.0689C49.5421 57.8301 50.8439 58.449 52.2037 58.9134C53.6163 59.5521 55.1759 59.7973 56.7169 59.6228C57.5949 59.4903 58.4268 59.1445 59.1394 58.6159C59.852 58.0874 60.4234 57.3922 60.8033 56.5916C61.0266 56.108 61.0943 55.5673 60.9973 55.0437C60.7645 53.9731 59.3291 53.3411 58.4498 52.8251Z" fill="#00D95F"/>
</svg>
